<mxfile host="Electron" agent="Mozilla/5.0 (Macintosh; Intel Mac OS X 10_15_7) AppleWebKit/537.36 (KHTML, like Gecko) draw.io/26.0.9 Chrome/128.0.6613.186 Electron/32.2.5 Safari/537.36" version="26.0.9">
  <diagram name="Page-1" id="zVovMgDccb0bmMKfcd8X">
    <mxGraphModel dx="1114" dy="808" grid="1" gridSize="10" guides="1" tooltips="1" connect="1" arrows="1" fold="1" page="1" pageScale="1" pageWidth="850" pageHeight="1100" math="0" shadow="0">
      <root>
        <mxCell id="0" />
        <mxCell id="1" parent="0" />
        <mxCell id="85A_9rKpaSoQgrPaq0sT-1" value="Courses" style="rounded=0;whiteSpace=wrap;html=1;" parent="1" vertex="1">
          <mxGeometry x="150" y="130" width="120" height="60" as="geometry" />
        </mxCell>
        <mxCell id="85A_9rKpaSoQgrPaq0sT-2" value="Enrollments" style="rounded=0;whiteSpace=wrap;html=1;" parent="1" vertex="1">
          <mxGeometry x="610" y="160" width="120" height="60" as="geometry" />
        </mxCell>
        <mxCell id="85A_9rKpaSoQgrPaq0sT-3" value="Feedback" style="rounded=0;whiteSpace=wrap;html=1;" parent="1" vertex="1">
          <mxGeometry x="620" y="440" width="120" height="60" as="geometry" />
        </mxCell>
        <mxCell id="85A_9rKpaSoQgrPaq0sT-4" value="Consent" style="rounded=0;whiteSpace=wrap;html=1;" parent="1" vertex="1">
          <mxGeometry x="580" y="700" width="120" height="60" as="geometry" />
        </mxCell>
        <mxCell id="85A_9rKpaSoQgrPaq0sT-5" value="Users" style="rounded=0;whiteSpace=wrap;html=1;" parent="1" vertex="1">
          <mxGeometry x="160" y="495" width="130" height="90" as="geometry" />
        </mxCell>
        <mxCell id="85A_9rKpaSoQgrPaq0sT-6" value="&lt;u&gt;course_id&lt;/u&gt;" style="ellipse;whiteSpace=wrap;html=1;" parent="1" vertex="1">
          <mxGeometry x="130" y="10" width="120" height="80" as="geometry" />
        </mxCell>
        <mxCell id="85A_9rKpaSoQgrPaq0sT-7" value="course_name" style="ellipse;whiteSpace=wrap;html=1;" parent="1" vertex="1">
          <mxGeometry x="280" y="20" width="120" height="80" as="geometry" />
        </mxCell>
        <mxCell id="85A_9rKpaSoQgrPaq0sT-8" value="description" style="ellipse;whiteSpace=wrap;html=1;" parent="1" vertex="1">
          <mxGeometry x="300" y="120" width="120" height="80" as="geometry" />
        </mxCell>
        <mxCell id="85A_9rKpaSoQgrPaq0sT-10" value="purchase_date" style="ellipse;whiteSpace=wrap;html=1;" parent="1" vertex="1">
          <mxGeometry x="250" y="240" width="120" height="80" as="geometry" />
        </mxCell>
        <mxCell id="85A_9rKpaSoQgrPaq0sT-11" value="end_date" style="ellipse;whiteSpace=wrap;html=1;" parent="1" vertex="1">
          <mxGeometry x="70" y="230" width="120" height="80" as="geometry" />
        </mxCell>
        <mxCell id="85A_9rKpaSoQgrPaq0sT-12" value="price" style="ellipse;whiteSpace=wrap;html=1;" parent="1" vertex="1">
          <mxGeometry x="10" y="90" width="120" height="80" as="geometry" />
        </mxCell>
        <mxCell id="85A_9rKpaSoQgrPaq0sT-13" value="enrollment_date" style="ellipse;whiteSpace=wrap;html=1;" parent="1" vertex="1">
          <mxGeometry x="690" y="40" width="120" height="80" as="geometry" />
        </mxCell>
        <mxCell id="85A_9rKpaSoQgrPaq0sT-14" value="&lt;u&gt;enrollment_id&lt;/u&gt;" style="ellipse;whiteSpace=wrap;html=1;" parent="1" vertex="1">
          <mxGeometry x="510" y="60" width="120" height="80" as="geometry" />
        </mxCell>
        <mxCell id="85A_9rKpaSoQgrPaq0sT-15" value="payment_status" style="ellipse;whiteSpace=wrap;html=1;" parent="1" vertex="1">
          <mxGeometry x="500" y="250" width="120" height="80" as="geometry" />
        </mxCell>
        <mxCell id="85A_9rKpaSoQgrPaq0sT-16" value="completion_status" style="ellipse;whiteSpace=wrap;html=1;" parent="1" vertex="1">
          <mxGeometry x="700" y="260" width="120" height="80" as="geometry" />
        </mxCell>
        <mxCell id="85A_9rKpaSoQgrPaq0sT-17" value="&lt;u&gt;user_id&lt;/u&gt;" style="ellipse;whiteSpace=wrap;html=1;" parent="1" vertex="1">
          <mxGeometry x="90" y="370" width="120" height="80" as="geometry" />
        </mxCell>
        <mxCell id="85A_9rKpaSoQgrPaq0sT-18" value="first_name" style="ellipse;whiteSpace=wrap;html=1;" parent="1" vertex="1">
          <mxGeometry x="250" y="390" width="120" height="80" as="geometry" />
        </mxCell>
        <mxCell id="85A_9rKpaSoQgrPaq0sT-19" value="last_name" style="ellipse;whiteSpace=wrap;html=1;" parent="1" vertex="1">
          <mxGeometry x="330" y="500" width="120" height="80" as="geometry" />
        </mxCell>
        <mxCell id="85A_9rKpaSoQgrPaq0sT-20" value="email" style="ellipse;whiteSpace=wrap;html=1;" parent="1" vertex="1">
          <mxGeometry x="320" y="610" width="120" height="80" as="geometry" />
        </mxCell>
        <mxCell id="85A_9rKpaSoQgrPaq0sT-21" value="phone_number" style="ellipse;whiteSpace=wrap;html=1;" parent="1" vertex="1">
          <mxGeometry x="190" y="680" width="120" height="80" as="geometry" />
        </mxCell>
        <mxCell id="85A_9rKpaSoQgrPaq0sT-22" value="consent_for_marketing" style="ellipse;whiteSpace=wrap;html=1;" parent="1" vertex="1">
          <mxGeometry x="10" y="470" width="120" height="80" as="geometry" />
        </mxCell>
        <mxCell id="85A_9rKpaSoQgrPaq0sT-23" value="created_at" style="ellipse;whiteSpace=wrap;html=1;" parent="1" vertex="1">
          <mxGeometry x="10" y="580" width="120" height="80" as="geometry" />
        </mxCell>
        <mxCell id="85A_9rKpaSoQgrPaq0sT-24" value="address" style="ellipse;whiteSpace=wrap;html=1;" parent="1" vertex="1">
          <mxGeometry x="30" y="690" width="120" height="80" as="geometry" />
        </mxCell>
        <mxCell id="85A_9rKpaSoQgrPaq0sT-25" value="&lt;u&gt;feedback_id&lt;/u&gt;" style="ellipse;whiteSpace=wrap;html=1;" parent="1" vertex="1">
          <mxGeometry x="480" y="370" width="120" height="80" as="geometry" />
        </mxCell>
        <mxCell id="85A_9rKpaSoQgrPaq0sT-26" value="rating" style="ellipse;whiteSpace=wrap;html=1;" parent="1" vertex="1">
          <mxGeometry x="710" y="350" width="120" height="80" as="geometry" />
        </mxCell>
        <mxCell id="85A_9rKpaSoQgrPaq0sT-27" value="comments" style="ellipse;whiteSpace=wrap;html=1;" parent="1" vertex="1">
          <mxGeometry x="720" y="520" width="120" height="80" as="geometry" />
        </mxCell>
        <mxCell id="85A_9rKpaSoQgrPaq0sT-28" value="submitted_at" style="ellipse;whiteSpace=wrap;html=1;" parent="1" vertex="1">
          <mxGeometry x="500" y="520" width="120" height="80" as="geometry" />
        </mxCell>
        <mxCell id="85A_9rKpaSoQgrPaq0sT-29" value="consent_given" style="ellipse;whiteSpace=wrap;html=1;" parent="1" vertex="1">
          <mxGeometry x="710" y="630" width="120" height="80" as="geometry" />
        </mxCell>
        <mxCell id="85A_9rKpaSoQgrPaq0sT-30" value="&lt;u&gt;consent_id&lt;/u&gt;" style="ellipse;whiteSpace=wrap;html=1;" parent="1" vertex="1">
          <mxGeometry x="440" y="710" width="120" height="80" as="geometry" />
        </mxCell>
        <mxCell id="85A_9rKpaSoQgrPaq0sT-31" value="consent-date" style="ellipse;whiteSpace=wrap;html=1;" parent="1" vertex="1">
          <mxGeometry x="720" y="750" width="120" height="80" as="geometry" />
        </mxCell>
        <mxCell id="85A_9rKpaSoQgrPaq0sT-32" value="" style="endArrow=none;html=1;rounded=0;" parent="1" edge="1">
          <mxGeometry width="50" height="50" relative="1" as="geometry">
            <mxPoint x="240" y="130" as="sourcePoint" />
            <mxPoint x="290" y="80" as="targetPoint" />
          </mxGeometry>
        </mxCell>
        <mxCell id="85A_9rKpaSoQgrPaq0sT-36" value="" style="endArrow=none;html=1;rounded=0;exitX=0.5;exitY=0;exitDx=0;exitDy=0;entryX=0.5;entryY=1;entryDx=0;entryDy=0;" parent="1" source="85A_9rKpaSoQgrPaq0sT-1" target="85A_9rKpaSoQgrPaq0sT-6" edge="1">
          <mxGeometry width="50" height="50" relative="1" as="geometry">
            <mxPoint x="220" y="120" as="sourcePoint" />
            <mxPoint x="235" y="80" as="targetPoint" />
          </mxGeometry>
        </mxCell>
        <mxCell id="85A_9rKpaSoQgrPaq0sT-37" value="" style="endArrow=none;html=1;rounded=0;exitX=0.5;exitY=0;exitDx=0;exitDy=0;entryX=0.5;entryY=1;entryDx=0;entryDy=0;" parent="1" edge="1">
          <mxGeometry width="50" height="50" relative="1" as="geometry">
            <mxPoint x="150" y="180" as="sourcePoint" />
            <mxPoint x="130" y="140" as="targetPoint" />
            <Array as="points">
              <mxPoint x="150" y="150" />
            </Array>
          </mxGeometry>
        </mxCell>
        <mxCell id="85A_9rKpaSoQgrPaq0sT-39" value="" style="endArrow=none;html=1;rounded=0;" parent="1" edge="1">
          <mxGeometry width="50" height="50" relative="1" as="geometry">
            <mxPoint x="270" y="180" as="sourcePoint" />
            <mxPoint x="320" y="130" as="targetPoint" />
            <Array as="points">
              <mxPoint x="300" y="150" />
            </Array>
          </mxGeometry>
        </mxCell>
        <mxCell id="85A_9rKpaSoQgrPaq0sT-40" value="" style="endArrow=none;html=1;rounded=0;exitX=0.583;exitY=-0.025;exitDx=0;exitDy=0;exitPerimeter=0;" parent="1" source="85A_9rKpaSoQgrPaq0sT-11" edge="1">
          <mxGeometry width="50" height="50" relative="1" as="geometry">
            <mxPoint x="130" y="240" as="sourcePoint" />
            <mxPoint x="180" y="190" as="targetPoint" />
          </mxGeometry>
        </mxCell>
        <mxCell id="85A_9rKpaSoQgrPaq0sT-41" value="" style="endArrow=none;html=1;rounded=0;exitX=0.408;exitY=0.013;exitDx=0;exitDy=0;exitPerimeter=0;" parent="1" source="85A_9rKpaSoQgrPaq0sT-10" edge="1">
          <mxGeometry width="50" height="50" relative="1" as="geometry">
            <mxPoint x="220" y="240" as="sourcePoint" />
            <mxPoint x="270" y="190" as="targetPoint" />
          </mxGeometry>
        </mxCell>
        <mxCell id="85A_9rKpaSoQgrPaq0sT-42" value="" style="endArrow=none;html=1;rounded=0;" parent="1" edge="1">
          <mxGeometry width="50" height="50" relative="1" as="geometry">
            <mxPoint x="240" y="495" as="sourcePoint" />
            <mxPoint x="290" y="445" as="targetPoint" />
          </mxGeometry>
        </mxCell>
        <mxCell id="85A_9rKpaSoQgrPaq0sT-43" value="" style="endArrow=none;html=1;rounded=0;entryX=1;entryY=1;entryDx=0;entryDy=0;" parent="1" target="85A_9rKpaSoQgrPaq0sT-17" edge="1">
          <mxGeometry width="50" height="50" relative="1" as="geometry">
            <mxPoint x="180" y="495" as="sourcePoint" />
            <mxPoint x="230" y="445" as="targetPoint" />
          </mxGeometry>
        </mxCell>
        <mxCell id="85A_9rKpaSoQgrPaq0sT-44" value="" style="endArrow=none;html=1;rounded=0;entryX=0;entryY=0;entryDx=0;entryDy=0;" parent="1" target="85A_9rKpaSoQgrPaq0sT-19" edge="1">
          <mxGeometry width="50" height="50" relative="1" as="geometry">
            <mxPoint x="290" y="550" as="sourcePoint" />
            <mxPoint x="340" y="500" as="targetPoint" />
          </mxGeometry>
        </mxCell>
        <mxCell id="85A_9rKpaSoQgrPaq0sT-45" value="" style="endArrow=none;html=1;rounded=0;exitX=0.333;exitY=0;exitDx=0;exitDy=0;exitPerimeter=0;" parent="1" source="85A_9rKpaSoQgrPaq0sT-21" edge="1">
          <mxGeometry width="50" height="50" relative="1" as="geometry">
            <mxPoint x="225" y="635" as="sourcePoint" />
            <mxPoint x="275" y="585" as="targetPoint" />
          </mxGeometry>
        </mxCell>
        <mxCell id="85A_9rKpaSoQgrPaq0sT-46" value="" style="endArrow=none;html=1;rounded=0;entryX=0.977;entryY=0.889;entryDx=0;entryDy=0;entryPerimeter=0;" parent="1" target="85A_9rKpaSoQgrPaq0sT-5" edge="1">
          <mxGeometry width="50" height="50" relative="1" as="geometry">
            <mxPoint x="330" y="630" as="sourcePoint" />
            <mxPoint x="380" y="580" as="targetPoint" />
          </mxGeometry>
        </mxCell>
        <mxCell id="85A_9rKpaSoQgrPaq0sT-47" value="" style="endArrow=none;html=1;rounded=0;" parent="1" edge="1">
          <mxGeometry width="50" height="50" relative="1" as="geometry">
            <mxPoint x="120" y="695" as="sourcePoint" />
            <mxPoint x="190" y="590" as="targetPoint" />
          </mxGeometry>
        </mxCell>
        <mxCell id="85A_9rKpaSoQgrPaq0sT-48" value="" style="endArrow=none;html=1;rounded=0;" parent="1" edge="1">
          <mxGeometry width="50" height="50" relative="1" as="geometry">
            <mxPoint x="110" y="600" as="sourcePoint" />
            <mxPoint x="160" y="550" as="targetPoint" />
          </mxGeometry>
        </mxCell>
        <mxCell id="85A_9rKpaSoQgrPaq0sT-49" value="" style="endArrow=none;html=1;rounded=0;entryX=0;entryY=0;entryDx=0;entryDy=0;" parent="1" target="85A_9rKpaSoQgrPaq0sT-5" edge="1">
          <mxGeometry width="50" height="50" relative="1" as="geometry">
            <mxPoint x="120" y="495" as="sourcePoint" />
            <mxPoint x="170" y="445" as="targetPoint" />
          </mxGeometry>
        </mxCell>
        <mxCell id="85A_9rKpaSoQgrPaq0sT-50" value="" style="endArrow=none;html=1;rounded=0;" parent="1" edge="1">
          <mxGeometry width="50" height="50" relative="1" as="geometry">
            <mxPoint x="680" y="440" as="sourcePoint" />
            <mxPoint x="720" y="405" as="targetPoint" />
          </mxGeometry>
        </mxCell>
        <mxCell id="85A_9rKpaSoQgrPaq0sT-51" value="" style="endArrow=none;html=1;rounded=0;exitX=0.608;exitY=0.975;exitDx=0;exitDy=0;exitPerimeter=0;" parent="1" source="85A_9rKpaSoQgrPaq0sT-25" edge="1">
          <mxGeometry width="50" height="50" relative="1" as="geometry">
            <mxPoint x="570" y="490" as="sourcePoint" />
            <mxPoint x="620" y="440" as="targetPoint" />
          </mxGeometry>
        </mxCell>
        <mxCell id="85A_9rKpaSoQgrPaq0sT-52" value="" style="endArrow=none;html=1;rounded=0;" parent="1" edge="1">
          <mxGeometry width="50" height="50" relative="1" as="geometry">
            <mxPoint x="570" y="520" as="sourcePoint" />
            <mxPoint x="620" y="470" as="targetPoint" />
          </mxGeometry>
        </mxCell>
        <mxCell id="85A_9rKpaSoQgrPaq0sT-54" value="" style="endArrow=none;html=1;rounded=0;" parent="1" edge="1">
          <mxGeometry width="50" height="50" relative="1" as="geometry">
            <mxPoint x="670" y="160" as="sourcePoint" />
            <mxPoint x="720" y="110" as="targetPoint" />
          </mxGeometry>
        </mxCell>
        <mxCell id="85A_9rKpaSoQgrPaq0sT-55" value="" style="endArrow=none;html=1;rounded=0;exitX=0.608;exitY=1.033;exitDx=0;exitDy=0;exitPerimeter=0;" parent="1" source="85A_9rKpaSoQgrPaq0sT-4" edge="1">
          <mxGeometry width="50" height="50" relative="1" as="geometry">
            <mxPoint x="670" y="830" as="sourcePoint" />
            <mxPoint x="720" y="780" as="targetPoint" />
          </mxGeometry>
        </mxCell>
        <mxCell id="85A_9rKpaSoQgrPaq0sT-56" value="" style="endArrow=none;html=1;rounded=0;entryX=-0.033;entryY=0.15;entryDx=0;entryDy=0;entryPerimeter=0;" parent="1" target="85A_9rKpaSoQgrPaq0sT-4" edge="1">
          <mxGeometry width="50" height="50" relative="1" as="geometry">
            <mxPoint x="510" y="720" as="sourcePoint" />
            <mxPoint x="560" y="670" as="targetPoint" />
          </mxGeometry>
        </mxCell>
        <mxCell id="85A_9rKpaSoQgrPaq0sT-57" value="" style="endArrow=none;html=1;rounded=0;entryX=-0.008;entryY=0.425;entryDx=0;entryDy=0;entryPerimeter=0;" parent="1" target="85A_9rKpaSoQgrPaq0sT-29" edge="1">
          <mxGeometry width="50" height="50" relative="1" as="geometry">
            <mxPoint x="640" y="700" as="sourcePoint" />
            <mxPoint x="690" y="650" as="targetPoint" />
          </mxGeometry>
        </mxCell>
        <mxCell id="85A_9rKpaSoQgrPaq0sT-58" value="" style="endArrow=none;html=1;rounded=0;entryX=1.033;entryY=0.883;entryDx=0;entryDy=0;entryPerimeter=0;" parent="1" target="85A_9rKpaSoQgrPaq0sT-2" edge="1">
          <mxGeometry width="50" height="50" relative="1" as="geometry">
            <mxPoint x="710" y="280" as="sourcePoint" />
            <mxPoint x="760" y="230" as="targetPoint" />
          </mxGeometry>
        </mxCell>
        <mxCell id="85A_9rKpaSoQgrPaq0sT-59" value="" style="endArrow=none;html=1;rounded=0;" parent="1" edge="1">
          <mxGeometry width="50" height="50" relative="1" as="geometry">
            <mxPoint x="610" y="270" as="sourcePoint" />
            <mxPoint x="660" y="220" as="targetPoint" />
          </mxGeometry>
        </mxCell>
        <mxCell id="85A_9rKpaSoQgrPaq0sT-60" value="" style="endArrow=none;html=1;rounded=0;exitX=0;exitY=0.25;exitDx=0;exitDy=0;" parent="1" source="85A_9rKpaSoQgrPaq0sT-2" edge="1">
          <mxGeometry width="50" height="50" relative="1" as="geometry">
            <mxPoint x="560" y="180" as="sourcePoint" />
            <mxPoint x="610" y="130" as="targetPoint" />
          </mxGeometry>
        </mxCell>
        <mxCell id="85A_9rKpaSoQgrPaq0sT-61" value="" style="endArrow=none;html=1;rounded=0;entryX=1;entryY=0.75;entryDx=0;entryDy=0;" parent="1" target="85A_9rKpaSoQgrPaq0sT-3" edge="1">
          <mxGeometry width="50" height="50" relative="1" as="geometry">
            <mxPoint x="780" y="520" as="sourcePoint" />
            <mxPoint x="830" y="470" as="targetPoint" />
          </mxGeometry>
        </mxCell>
        <mxCell id="85A_9rKpaSoQgrPaq0sT-62" value="Enrolls" style="rhombus;whiteSpace=wrap;html=1;" parent="1" vertex="1">
          <mxGeometry x="185" y="310" width="80" height="80" as="geometry" />
        </mxCell>
        <mxCell id="85A_9rKpaSoQgrPaq0sT-63" value="" style="endArrow=none;html=1;rounded=0;entryX=0.5;entryY=1;entryDx=0;entryDy=0;" parent="1" target="85A_9rKpaSoQgrPaq0sT-62" edge="1">
          <mxGeometry width="50" height="50" relative="1" as="geometry">
            <mxPoint x="210" y="490" as="sourcePoint" />
            <mxPoint x="260" y="440" as="targetPoint" />
          </mxGeometry>
        </mxCell>
        <mxCell id="85A_9rKpaSoQgrPaq0sT-64" value="" style="endArrow=none;html=1;rounded=0;entryX=0.592;entryY=1.017;entryDx=0;entryDy=0;entryPerimeter=0;" parent="1" target="85A_9rKpaSoQgrPaq0sT-1" edge="1">
          <mxGeometry width="50" height="50" relative="1" as="geometry">
            <mxPoint x="225" y="310" as="sourcePoint" />
            <mxPoint x="275" y="260" as="targetPoint" />
          </mxGeometry>
        </mxCell>
        <mxCell id="85A_9rKpaSoQgrPaq0sT-65" value="" style="endArrow=classic;html=1;rounded=0;jumpSize=12;fontStyle=0;strokeWidth=5;" parent="1" edge="1">
          <mxGeometry width="50" height="50" relative="1" as="geometry">
            <mxPoint x="290" y="510" as="sourcePoint" />
            <mxPoint x="610" y="690" as="targetPoint" />
          </mxGeometry>
        </mxCell>
      </root>
    </mxGraphModel>
  </diagram>
</mxfile>
